<svg width="20" height="20" viewBox="0 0 20 20" fill="none" xmlns="http://www.w3.org/2000/svg">
<path fill-rule="evenodd" clip-rule="evenodd" d="M15.2854 3.51681C15.6201 3.25178 16.1077 3.27387 16.4169 3.58307C16.7499 3.91606 16.7499 4.45595 16.4169 4.78894L11.2058 9.99999L16.4169 15.2111C16.7499 15.544 16.7499 16.0839 16.4169 16.4169C16.1077 16.7261 15.6201 16.7482 15.2854 16.4832L15.211 16.4169L9.99998 11.2059L4.78892 16.4169L4.71455 16.4832C4.37986 16.7482 3.89226 16.7261 3.58306 16.4169C3.25007 16.0839 3.25007 15.544 3.58306 15.2111L8.79412 9.99999L3.58306 4.78894C3.25007 4.45595 3.25007 3.91606 3.58306 3.58307C3.89226 3.27387 4.37986 3.25178 4.71455 3.51681L4.78892 3.58307L9.99998 8.79413L15.211 3.58307L15.2854 3.51681Z" fill="#fff"/>
</svg>
